<?xml version="1.0" encoding="UTF-8"?>
<!DOCTYPE svg PUBLIC "-//W3C//DTD SVG 1.1//EN" "http://www.w3.org/Graphics/SVG/1.1/DTD/svg11.dtd">
<!-- Creator: CorelDRAW -->
<svg xmlns="http://www.w3.org/2000/svg" xml:space="preserve" width="40px" height="40px" version="1.1"
     style="shape-rendering:geometricPrecision; text-rendering:geometricPrecision; image-rendering:optimizeQuality; fill-rule:evenodd; clip-rule:evenodd"
     viewBox="0 0 4335 4335"
>
 <defs>
  <style type="text/css">
   <![CDATA[
    .fil0 {fill:black}
   ]]>
  </style>
 </defs>
 <g id="Layer_x0020_1">
  <metadata id="CorelCorpID_0Corel-Layer"/>
  <path class="fil0"
        d="M2169 3527c-750,0 -1363,-609 -1363,-1360 0,-746 610,-1355 1360,-1355 746,0 1355,609 1355,1355 4,751 -605,1360 -1352,1360zm-1046 -1296c-35,0 -63,-28 -63,-64 0,-609 496,-1102 1109,-1102 35,0 64,28 64,64 0,35 -29,63 -64,63 -542,0 -982,440 -982,979 -4,32 -28,60 -64,60zm962 98l-370 0 -148 437c-11,25 -32,42 -60,42 -7,0 -14,0 -21,-3 -32,-11 -49,-46 -39,-78l395 -1155c3,-9 8,-16 14,-23 7,-7 15,-12 24,-15 7,-3 13,-4 20,-3l0 0 0 0 0 0c6,-1 13,0 19,3 9,3 17,8 24,14l0 1c7,6 12,14 15,23l221 653c9,11 15,25 15,41 0,1 0,2 0,3l155 458c10,32 -7,67 -39,78 -3,3 -10,3 -18,3 -24,0 -49,-17 -59,-42l-148 -437zm-185 -546l-142 420 284 0 -142 -420zm924 -126l-91 0 0 1025 91 0c35,0 64,28 64,63 0,35 -29,63 -64,63l-155 0 -158 0c-35,0 -64,-28 -64,-63 0,-35 29,-63 64,-63l95 0 0 -1025 -95 0c-35,0 -64,-28 -64,-64 0,-35 29,-63 64,-63l313 0c35,0 64,28 64,63 0,36 -29,64 -64,64z"/>
  <path class="fil0" d="M2169 935c-35,0 -63,-28 -63,-60l0 -437c0,-35 28,-63 63,-63 35,0 64,28 64,63l0 434c-4,35 -32,63 -64,63z"/>
  <path class="fil0" d="M2169 502c-137,0 -250,-113 -250,-250 0,-138 113,-250 250,-250 138,0 250,112 250,250 -3,137 -112,250 -250,250z"/>
  <path class="fil0" d="M3081 1315c-14,0 -31,-7 -42,-17 -25,-25 -25,-64 0,-88l306 -307c25,-24 64,-24 88,0 25,25 25,64 0,88l-306 307c-14,10 -28,17 -46,17z"/>
  <path class="fil0" d="M3521 1062c-63,0 -126,-25 -176,-74 -98,-99 -98,-257 0,-352 99,-95 257,-95 353,0 0,0 0,0 0,0 95,98 95,253 0,352 -46,49 -113,74 -177,74z"/>
  <path class="fil0" d="M3895 2231l-433 0c-36,0 -64,-28 -64,-64 0,-35 28,-63 64,-63l433 0c35,0 63,28 63,63 0,36 -28,64 -63,64z"/>
  <path class="fil0" d="M4085 2417c-137,0 -250,-112 -250,-250 0,-137 113,-250 250,-250 137,0 250,113 250,250 0,138 -113,250 -250,250z"/>
  <path class="fil0" d="M3388 3453c-14,0 -32,-7 -43,-18l-306 -306c-25,-25 -25,-64 0,-88 25,-25 63,-25 88,0l306 306c25,25 25,64 0,88 -14,14 -28,18 -45,18z"/>
  <polygon class="fil0" points="3655,3657 3655,3657 "/>
  <path class="fil0"
        d="M3521 3773c-63,0 -126,-24 -176,-74 -49,-49 -74,-112 -74,-179 0,-67 29,-127 74,-173 95,-95 254,-95 353,0 95,95 95,254 0,349 0,0 0,0 0,0 -46,53 -113,77 -177,77z"/>
  <path class="fil0" d="M2169 3960c-35,0 -63,-28 -63,-63l0 -430c0,-35 28,-64 63,-64 35,0 64,29 64,64l0 430c-4,35 -32,63 -64,63z"/>
  <path class="fil0" d="M2169 4333c-137,0 -250,-113 -250,-250 0,-137 113,-250 250,-250 138,0 250,113 250,250 -3,137 -112,250 -250,250z"/>
  <path class="fil0" d="M944 3453c-14,0 -32,-7 -43,-18 -24,-24 -24,-63 0,-88l307 -306c25,-25 63,-25 88,0 25,24 25,63 0,88l-306 306c-15,14 -32,18 -46,18z"/>
  <path class="fil0"
        d="M813 3773c-66,0 -130,-24 -176,-74 0,0 0,0 0,0 -49,-49 -74,-112 -74,-179 0,-67 29,-127 74,-173 46,-46 113,-74 176,-74 67,0 127,28 173,74 46,42 70,106 74,173 0,67 -25,130 -74,179 -42,46 -106,74 -173,74 0,0 0,0 0,0z"/>
  <path class="fil0" d="M870 2231l-430 0c-35,0 -63,-28 -63,-64 0,-35 28,-63 63,-63l430 0c35,0 63,28 63,63 0,36 -28,64 -63,64z"/>
  <path class="fil0" d="M250 2417c-137,0 -250,-112 -250,-250 0,-137 113,-250 250,-250 137,0 250,113 250,250 0,138 -113,250 -250,250z"/>
  <path class="fil0" d="M1250 1315c-14,0 -32,-7 -42,-17l-307 -307c-24,-24 -24,-63 0,-88 25,-24 64,-24 89,0l306 307c25,24 25,63 0,88 -14,10 -32,17 -46,17z"/>
  <path class="fil0" d="M813 1062c-66,0 -130,-25 -176,-74 -98,-99 -98,-257 0,-352 0,0 0,0 0,0 99,-95 254,-95 349,0 99,98 99,257 0,352 -42,49 -106,74 -173,74 0,0 0,0 0,0z"/>
 </g>
</svg>
